<svg width="18" height="18" viewBox="0 0 18 18" fill="none" xmlns="http://www.w3.org/2000/svg">
<path d="M12.375 10.9687C12.375 11.1356 12.3255 11.2987 12.2328 11.4375C12.1401 11.5762 12.0083 11.6844 11.8541 11.7483C11.7 11.8121 11.5303 11.8288 11.3666 11.7963C11.203 11.7637 11.0526 11.6834 10.9346 11.5654C10.8166 11.4474 10.7363 11.297 10.7037 11.1333C10.6712 10.9697 10.6879 10.8 10.7517 10.6458C10.8156 10.4917 10.9237 10.3599 11.0625 10.2672C11.2012 10.1745 11.3644 10.125 11.5313 10.125C11.755 10.125 11.9696 10.2139 12.1279 10.3721C12.2861 10.5303 12.375 10.745 12.375 10.9687ZM6.46875 10.125C6.30188 10.125 6.13875 10.1745 5.99999 10.2672C5.86124 10.3599 5.75309 10.4917 5.68923 10.6458C5.62537 10.8 5.60866 10.9697 5.64122 11.1333C5.67377 11.297 5.75413 11.4474 5.87213 11.5654C5.99013 11.6834 6.14047 11.7637 6.30415 11.7963C6.46782 11.8288 6.63747 11.8121 6.79164 11.7483C6.94582 11.6844 7.07759 11.5762 7.17031 11.4375C7.26302 11.2987 7.3125 11.1356 7.3125 10.9687C7.3125 10.745 7.22361 10.5303 7.06537 10.3721C6.90714 10.2139 6.69253 10.125 6.46875 10.125ZM16.875 11.8125V13.5C16.875 13.7983 16.7565 14.0845 16.5455 14.2955C16.3345 14.5065 16.0484 14.625 15.75 14.625H2.25C1.95163 14.625 1.66549 14.5065 1.45451 14.2955C1.24353 14.0845 1.125 13.7983 1.125 13.5V11.8919C1.124 10.8076 1.34422 9.73443 1.7722 8.73812C2.20018 7.7418 2.82691 6.84327 3.61407 6.09748L1.85203 4.33545C1.74649 4.2299 1.68719 4.08675 1.68719 3.93748C1.68719 3.78821 1.74649 3.64506 1.85203 3.53951C1.95758 3.43396 2.10074 3.37467 2.25 3.37467C2.39927 3.37467 2.54242 3.43396 2.64797 3.53951L4.48735 5.37889C5.80806 4.44336 7.38608 3.9398 9.00456 3.93741C10.623 3.93502 12.2025 4.43391 13.526 5.36553L15.3541 3.5374C15.4597 3.43185 15.6028 3.37256 15.7521 3.37256C15.9014 3.37256 16.0445 3.43185 16.1501 3.5374C16.2556 3.64295 16.3149 3.7861 16.3149 3.93537C16.3149 4.08464 16.2556 4.22779 16.1501 4.33334L14.4014 6.08201C14.4541 6.13193 14.5069 6.18256 14.5589 6.23459C15.2954 6.96443 15.8794 7.83341 16.277 8.79099C16.6746 9.74857 16.8779 10.7756 16.875 11.8125ZM15.75 11.8125C15.75 10.0223 15.0388 8.30538 13.773 7.03951C12.5071 5.77364 10.7902 5.06248 9 5.06248H8.9761C5.26711 5.07514 2.25 8.13865 2.25 11.8919V13.5H15.75V11.8125Z" fill="white"/>
</svg>
