<svg width="29" height="28" viewBox="0 0 29 28" fill="none" xmlns="http://www.w3.org/2000/svg">
<path fill-rule="evenodd" clip-rule="evenodd" d="M0.59082 8L1.76729 21.8823L12.8261 28L25.2967 22.1176L28.1202 11.0588L20.1202 0.941176L10.9438 0L0.59082 8Z" fill="#F33600"/>
<path fill-rule="evenodd" clip-rule="evenodd" d="M12.5908 26.3529L12.8261 28L1.76729 22.1177L0.59082 8.00001L3.64964 14.1177L12.5908 26.3529Z" fill="#C62A10"/>
<path fill-rule="evenodd" clip-rule="evenodd" d="M0.59082 8L2.47317 19.2941L12.5908 26.3529L25.0614 20.7059L28.1202 11.0588L20.1202 0.941176L10.9438 0L0.59082 8Z" fill="#FFE400"/>
<path fill-rule="evenodd" clip-rule="evenodd" d="M25.7674 11.7647C25.1636 13.6365 22.9438 18.1176 22.9438 18.1176L5.06149 17.4118H4.8262L3.88502 8.47059L6.47326 6.38612L5.06149 5.17647L2.94385 6.35294L6.94385 3.05882L6.23796 4.23529L7.53396 5.53129L11.8163 2.08094C12.1556 1.80824 12.5177 1.74329 13.2968 1.88235C14.0758 2.02141 18.5264 3.18282 18.9438 3.29412C19.3229 3.42659 19.6517 3.67318 19.885 4C20.3194 4.49859 21.049 5.34306 21.8493 6.27106L23.4045 5.0909L24.2875 6.21141L22.5116 7.03976C24.1203 8.90729 25.7674 10.8235 25.7674 10.8235C25.8554 11.1311 25.8554 11.4572 25.7674 11.7647ZM20.8262 3.05882C20.2867 2.68518 18.4733 0.941177 18.4733 0.941177C19.0813 1.46682 21.3785 2.53235 21.3785 2.53235L21.7803 3.04064C21.5067 3.26489 21.0998 3.28311 20.8262 3.05882Z" fill="#F3FF00"/>
<path fill-rule="evenodd" clip-rule="evenodd" d="M4.35547 8.70588L12.1202 2.35294L12.8261 2.11765L19.179 3.7647L24.7444 10.4C25.1475 10.8287 25.2706 11.4499 25.0613 12L22.9437 18.3529L12.5908 22.8235L5.06135 17.6471L4.35547 8.70588Z" fill="#CA6A10"/>
<path fill-rule="evenodd" clip-rule="evenodd" d="M24.3983 12.4706C24.0089 13.8306 22.7835 17.0845 22.7835 17.0845C22.7835 17.0845 22.5482 17.8927 21.1686 18.4685C19.7891 19.0442 13.3254 21.9294 13.3254 21.9294C13.3254 21.9294 12.8616 22.2167 11.9411 21.6986C11.0207 21.1805 6.40465 17.7765 6.40465 17.7765C6.40465 17.7765 5.60771 17.2221 5.48183 15.9311C5.35595 14.64 5.02042 9.93317 5.02042 9.93317C4.92301 9.42291 5.09774 8.8987 5.48183 8.54894L12.1719 3.01176C12.1719 3.01176 12.5771 2.84352 13.5559 3.01176C14.5348 3.18 17.939 3.93505 17.939 3.93505C18.4573 4.14717 18.9279 4.46096 19.323 4.85788C19.9228 5.48588 24.1672 10.6252 24.1672 10.6252C24.1672 10.6252 24.7879 11.1108 24.3983 12.4706Z" fill="#FF9D00"/>
<path fill-rule="evenodd" clip-rule="evenodd" d="M24.1672 11.0958C24.1672 11.0958 19.9228 5.95648 19.3232 5.32848C18.9281 4.93156 18.4575 4.61777 17.9392 4.40566C17.9392 4.40566 14.5348 3.6513 13.5555 3.48236C12.5762 3.31342 12.1715 3.48236 12.1715 3.48236L5.48183 9.01954C5.2728 9.22535 5.1212 9.48224 5.04207 9.76471C5.02842 9.57389 5.02042 9.46283 5.02042 9.46283C4.92301 8.95257 5.09774 8.42836 5.48183 8.0786L12.1719 2.54119C12.1719 2.54119 12.5771 2.37295 13.5559 2.54119C14.5348 2.70942 17.939 3.46448 17.939 3.46448C18.4573 3.6766 18.9279 3.99039 19.323 4.3873C19.9228 5.0153 24.1672 10.1546 24.1672 10.1546C24.1672 10.1546 24.6818 10.5619 24.4752 11.6675C24.434 11.4498 24.3264 11.25 24.1672 11.0958Z" fill="#C62A10"/>
<path opacity="0.6" fill-rule="evenodd" clip-rule="evenodd" d="M12.1203 3.7647L6.23794 8.94117C6.23794 8.94117 5.39936 9.35388 5.53206 10.5882C5.66477 11.8226 6.23794 16.2353 6.23794 16.2353C6.23794 16.2353 6.50124 17.1929 7.17912 17.6471C7.857 18.1012 12.1203 21.1765 12.1203 21.1765C12.4243 21.2871 12.7575 21.2871 13.0615 21.1765C13.6055 20.9958 21.0615 17.8823 21.0615 17.8823C21.0615 17.8823 21.5935 17.6125 22.0026 16.4706C22.4118 15.3287 23.4144 12 23.4144 12C23.4815 11.4104 23.3123 10.8182 22.9438 10.3529C22.321 9.5487 18.4732 4.94118 18.4732 4.94118C18.103 4.73423 17.7076 4.57607 17.2968 4.47059C16.5817 4.28023 13.2968 3.52941 13.2968 3.52941C13.2968 3.52941 12.365 3.39788 12.1203 3.7647Z" fill="#FFE400"/>
<path fill-rule="evenodd" clip-rule="evenodd" d="M5.7674 12.9412C5.91613 12.0271 6.2354 11.1491 6.70857 10.353C7.23657 9.53695 8.35563 8.94119 8.35563 8.94119C8.35563 8.94119 11.9695 6.87695 14.238 6.82354C16.5065 6.77013 19.4145 8.70589 19.4145 8.70589C20.3158 9.36326 21.1799 10.0702 22.0027 10.8235C22.238 11.0588 22.4733 11.7647 22.4733 11.7647L22.7086 14.5882L23.4144 12.4706C23.4144 12.4706 23.8552 11.2471 23.1792 10.353C22.5032 9.45884 18.9439 5.41178 18.9439 5.41178C18.9439 5.41178 18.5227 4.80519 17.2968 4.4706C16.0709 4.13601 13.5321 3.52942 13.5321 3.52942C13.5321 3.52942 12.3441 3.32331 11.6497 4.00001C10.9554 4.67672 6.00269 8.94119 6.00269 8.94119C6.00269 8.94119 5.34904 9.94166 5.5321 10.8235C5.65704 11.5235 5.73563 12.2309 5.7674 12.9412Z" fill="#FF9C00"/>
<path fill-rule="evenodd" clip-rule="evenodd" d="M18.9437 22.3529L21.2966 19.7647L21.7672 20.9412L18.9437 22.3529ZM12.1201 1.64706L10.4731 2.82353L9.29662 1.88235L11.179 0.470589L18.4731 1.17647L20.5907 2.82353L21.2966 5.64706L19.4143 3.29412L12.1201 1.64706ZM10.9437 22.1176L12.5907 23.2941L18.0025 20.9412L20.826 19.7647L18.9437 21.6471L14.7084 23.5294L12.5907 24.4706L7.64956 21.4118L9.06132 20.9412L10.2378 22.1176H10.9437ZM4.51685 19.4621L6.0065 19.236L7.5185 20.3816L6.3505 20.5228L4.51685 19.4621ZM4.12015 15.0588L2.70838 14.8235L1.75732 9.49694L2.23779 7.52941L4.12015 5.88235L6.47309 6.35294L3.64956 8.70588L4.12015 15.0588Z" fill="#FFCC00"/>
<path fill-rule="evenodd" clip-rule="evenodd" d="M8.12012 18.3529C8.12223 18.3416 10.2011 19.1887 10.3293 18.3529C10.454 17.54 10.7084 15.0588 10.7084 15.0588L10.0025 15.2941C10.0025 15.2941 8.93918 12.3125 9.53188 9.88235C9.32739 9.78169 9.16195 9.61626 9.06129 9.41176L9.29659 4.94118L12.3554 7.05882L13.7672 5.64706L15.4142 7.29412L18.2378 5.41177L18.0025 9.41176H17.2966L18.0025 12.9412L17.2966 13.4118L17.7672 15.0588L17.5319 15.2941L18.2378 16.9412L17.2966 18.1176C17.2966 18.1176 17.0719 18.5802 17.7672 18.5882C18.814 18.4842 20.1201 18.3529 20.1201 18.3529L16.826 19.5294V18.5882L16.1201 19.0588L13.5319 17.4118L12.3554 14.5882L11.4142 15.0588C11.4142 15.0588 11.1514 17.3682 10.9436 18.8235C10.8248 19.6553 10.4731 20 10.4731 20C9.63732 19.5284 8.84932 18.9768 8.12012 18.3529Z" fill="#FF6809"/>
<path fill-rule="evenodd" clip-rule="evenodd" d="M22.7085 15.5294C22.5414 16.0278 22.3306 16.8565 22.0026 17.1765C21.6746 17.4965 18.2379 19.0588 18.2379 19.0588C18.2379 19.0588 20.4812 17.3024 21.532 16.2353C22.0238 15.6315 23.4054 13.2054 23.885 12C23.5156 13.3071 22.8756 15.0311 22.7085 15.5294ZM6.23792 16.4706C6.12423 16.0066 6.04557 15.5346 6.00263 15.0588C5.93957 14.2398 5.76733 12.7059 5.76733 12.7059C5.76733 12.7059 6.54263 15.0861 6.9438 16C7.34498 16.9139 8.59086 18.5882 8.59086 18.5882C8.59086 18.5882 8.2191 18.2791 7.64969 17.8824C7.13402 17.4591 6.66115 16.9863 6.23792 16.4706Z" fill="#F3FF00"/>
<path fill-rule="evenodd" clip-rule="evenodd" d="M16.8261 9.17647C15.8527 9.43694 11.3835 9.59647 10.7085 9.64706C10.269 9.65447 9.84509 9.48487 9.53198 9.17647L9.76728 5.88235L12.3555 7.76471L13.7673 6.35294L15.4143 8L17.7673 6.35294L17.532 8.94118C17.3079 9.04991 17.0706 9.12899 16.8261 9.17647ZM17.0614 15.0588C16.7334 15.2647 15.6496 16.2353 15.6496 16.2353C15.6496 16.2353 15.3437 15.7859 15.6496 15.0588C15.6496 15.0588 16.3447 13.9101 16.8261 13.8824C16.8993 13.842 16.9881 13.842 17.0614 13.8824L17.2967 14.5882C17.3411 14.7812 17.2424 14.9785 17.0614 15.0588ZM15.8849 13.8824L15.4143 14.8235C15.4143 14.8235 15.0873 14.6247 14.4732 13.6471C13.859 12.6694 13.7673 10.1176 13.7673 10.1176L16.5908 9.88235L17.2967 12.7059L16.5908 12.9412L16.8261 13.4118L15.8849 13.8824ZM11.179 10.1176H13.2967C13.3809 11.6073 13.9875 14.2861 14.0014 14.3473C13.9941 14.3106 13.9965 14.1294 15.179 15.2941C15.0552 15.8361 15.0552 16.3992 15.179 16.9412L17.0614 15.5294L17.7673 16.9412L16.3555 18.1176L15.8849 18.3529L14.2379 17.1765L13.2967 15.0588L13.0614 11.5294L12.5908 11.0588C12.5908 11.0588 11.7609 10.7584 11.6496 12C11.5383 13.2416 12.5908 13.4118 12.5908 13.4118V14.1176C12.5908 14.12 11.7623 14.3948 10.9437 14.5882C10.2433 14.7529 10.0026 13.4118 10.0026 13.4118C10.0026 13.4118 9.96986 12.6631 10.0026 11.2941C10.0353 9.92518 11.179 10.1176 11.179 10.1176ZM12.1202 12.2353C12.0322 11.5706 12.3555 11.5294 12.3555 11.5294C12.5689 11.8231 12.7955 12.9534 12.5908 12.9412C12.3861 12.9289 12.2082 12.9 12.1202 12.2353ZM11.4143 15.0588L12.3555 14.5882L13.7673 17.4118L16.1202 19.0588L16.8261 18.3529V19.5294C16.8261 19.5294 14.3774 20.7529 13.532 20.9412C12.6866 21.1294 11.6496 20.7059 11.6496 20.7059L10.4732 20L10.9437 19.0588L11.4143 15.0588Z" fill="#FFD83B"/>
<path fill-rule="evenodd" clip-rule="evenodd" d="M17.2967 7.05883L15.4143 8L17.7673 6.35294L17.532 8.94118L17.2967 7.05883ZM12.3555 7.76471L13.7673 6.35294L15.4143 8L13.7673 6.82353L12.3555 7.76471ZM9.53198 9.17647L9.76728 5.88235L12.3555 7.76471L10.2379 6.82353L9.53198 9.17647ZM10.7085 10.1176H13.2967C12.9979 10.124 10.7828 10.6226 10.7085 11.0588C10.6341 11.4951 10.4153 13.0353 10.7085 13.6471C10.8959 14.0154 11.2435 14.2761 11.6496 14.3529C11.6496 14.3529 11.5819 14.4419 10.9437 14.5882C10.3056 14.7346 10.0026 13.4118 10.0026 13.4118C10.0026 13.4118 9.95198 11.7252 10.0026 11.0588C10.0582 10.6437 10.3255 10.2873 10.7085 10.1176ZM12.5908 20.2353L16.8261 19.5294L13.2967 21.1765C13.2967 21.1765 12.2927 21.3678 11.6496 20.9412C11.233 20.6593 10.8396 20.3446 10.4732 20L10.7085 19.7647L12.5908 20.2353ZM15.8849 18.3529L14.2379 17.1765C14.2379 17.1765 13.4995 15.4807 13.2967 15.0588C13.0939 14.6369 13.1241 12.4706 13.1241 12.4706L13.7673 15.0588L14.4732 16.7059L15.8849 17.6471L17.7673 16.9412L15.8849 18.3529ZM17.0614 15.0588C16.9045 15.1896 15.6496 16.2353 15.6496 16.2353C15.4603 16.0049 15.4769 15.2979 15.7332 14.928C16.0101 14.5282 16.2937 14.1751 16.5406 14C16.7477 13.8531 16.9437 13.8521 16.9437 13.8521C17.1163 13.8188 17.104 14.0904 17.2015 14.2971C17.5029 14.8868 17.2183 14.9281 17.0614 15.0588ZM17.2967 12.7059L16.1202 13.1765L16.8261 12.4706L16.5908 9.88235L17.2967 12.7059Z" fill="#F3FF00"/>
<path fill-rule="evenodd" clip-rule="evenodd" d="M5.21924 4.42273L7.20268 6.37647L7.46077 6.1653L5.53209 4.18182L5.21924 4.42273Z" fill="#FF6809"/>
<path fill-rule="evenodd" clip-rule="evenodd" d="M5.06006 4.55L7.15173 6.42728L7.20259 6.37648L5.23638 4.41027L5.06006 4.55ZM23.6431 5.40909L22.2379 6.58825L23.9912 5.83681L23.6431 5.40909Z" fill="#7E0E01"/>
<path fill-rule="evenodd" clip-rule="evenodd" d="M2.70847 6.35294L1.06141 8L2.94376 19.0588L12.5908 25.4118L24.5908 20.2353L27.4143 11.0588L25.532 7.76471L28.1202 11.0588L25.2967 20.7059L12.5908 26.3529L2.47317 19.2941L0.59082 8L2.70847 6.35294Z" fill="#F3FF00"/>
<path fill-rule="evenodd" clip-rule="evenodd" d="M7.44653 22.75L8.59093 21.1765L6.94971 22.4172L7.44653 22.75ZM8.59093 23.5622L10.0027 21.6471L9.03744 23.8636L8.59093 23.5622ZM6.94971 22.4172L7.12834 24.9773L7.60562 25.2318L7.44653 22.75L6.94971 22.4172ZM8.59093 23.5622V25.7474L9.03744 25.9795V23.8636L8.59093 23.5622Z" fill="#821101"/>
<path fill-rule="evenodd" clip-rule="evenodd" d="M18.7085 0.941186L19.6497 1.88236L21.3784 2.53236L20.1203 0.941186L18.6951 0.794998L18.7085 0.941186Z" fill="#FFA200"/>
<path fill-rule="evenodd" clip-rule="evenodd" d="M14.7085 11.0588C15.1731 10.9479 15.6448 10.8693 16.1202 10.8235C16.3074 10.8146 16.4857 10.9037 16.5908 11.0588L15.4143 11.7647C15.4143 11.7647 14.3913 11.352 14.4732 11.0588" fill="#E27B1B"/>
<path fill-rule="evenodd" clip-rule="evenodd" d="M21.2966 18.8235L21.7672 18.5882L22.4731 21.1765L21.2966 18.8235ZM18.4731 17.647L18.7084 16.7059L18.4731 15.7647L19.4142 16.7059L18.4731 17.647ZM18.7084 12.7059L18.2378 10.5882L19.4142 12.7059L18.7084 13.8823L18.4731 15.7647L18.0025 13.647L18.7084 12.7059ZM18.7084 6.58823L19.4142 8.23529L18.7084 9.88234V6.58823ZM14.7084 5.41176L15.6495 5.64705L17.7672 4.94117L15.6495 6.35293L14.7084 5.41176ZM10.4731 4.47058L12.3554 5.17646L13.7672 4.94117L12.3554 6.11764L10.4731 4.47058ZM8.12012 16.9412C8.12012 16.9412 8.95282 17.272 9.06129 17.1765C9.16976 17.0809 9.53188 15.7647 9.53188 15.7647C9.69623 16.5404 9.69623 17.3419 9.53188 18.1176C8.98506 18.047 8.12012 16.9412 8.12012 16.9412ZM8.12012 12.4706L8.826 10.8235C8.826 10.8235 8.85141 14.3151 9.29659 15.0588C8.34271 14.1551 8.12012 12.4706 8.12012 12.4706Z" fill="#CA6A10"/>
<path fill-rule="evenodd" clip-rule="evenodd" d="M22.4731 8.00001L23.6496 7.52942L22.9437 8.4706L22.4731 8.00001Z" fill="#CA6A10"/>
<path fill-rule="evenodd" clip-rule="evenodd" d="M20.5909 21.8823L24.5909 20L26.2379 15.2941L25.0615 20.2353L18.2379 23.2941L20.5909 21.8823ZM4.59089 15.2941L3.88501 8.70588L6.69256 6.1323L7.08797 6.47583L4.3556 8.94117L4.59089 15.2941ZM7.17913 5.64706L7.41442 6.11764L12.3556 2.11764L16.3556 3.05882L12.1203 1.64706L7.17913 5.64706ZM13.2968 15.0588L14.2379 16.9412C14.2379 16.9412 15.6309 18.3426 15.885 18.3529C16.1391 18.3633 17.2968 17.1765 17.2968 17.1765L15.885 18.1176L14.2379 16.7059L13.2968 15.0588ZM17.0615 13.8823L17.2968 14.8235L15.6497 16.2353L17.0615 14.5882V13.8823ZM11.1791 9.41176L17.0615 8.70588L17.5321 8.23529V8.94117L11.1791 9.41176Z" fill="#FBFFB2"/>
<path fill-rule="evenodd" clip-rule="evenodd" d="M10.4731 20L12.1202 21.1765C12.1202 21.1765 13.5023 21.2372 14.0026 20.9412C14.5028 20.6452 16.8261 19.5294 16.8261 19.5294C16.8261 19.5294 13.5449 20.7969 12.5908 20.7059C11.6367 20.6148 10.4731 20 10.4731 20Z" fill="#FBFFB0"/>
</svg>
