<svg width="18" height="19" viewBox="0 0 18 19" fill="none" xmlns="http://www.w3.org/2000/svg">
<path d="M14.3719 4.57002C13.3097 3.50866 11.9566 2.78607 10.4837 2.49359C9.01086 2.2011 7.48434 2.35186 6.09714 2.92681C4.70994 3.50175 3.52434 4.47506 2.69022 5.72371C1.85609 6.97235 1.41089 8.44027 1.41089 9.9419C1.41089 11.4435 1.85609 12.9114 2.69022 14.1601C3.52434 15.4087 4.70994 16.382 6.09714 16.957C7.48434 17.5319 9.01086 17.6827 10.4837 17.3902C11.9566 17.0977 13.3097 16.3751 14.3719 15.3138C15.7947 13.888 16.5937 11.9561 16.5937 9.9419C16.5937 7.9277 15.7947 5.99577 14.3719 4.57002ZM13.1766 14.1199C12.3504 14.9454 11.298 15.5075 10.1525 15.735C9.0069 15.9625 7.81958 15.8453 6.74062 15.3981C5.66166 14.951 4.7395 14.1939 4.09072 13.2228C3.44193 12.2516 3.09565 11.1098 3.09565 9.9419C3.09565 8.77395 3.44193 7.63222 4.09072 6.66104C4.7395 5.68986 5.66166 4.93284 6.74062 4.48567C7.81958 4.03851 9.0069 3.92128 10.1525 4.1488C11.298 4.37632 12.3504 4.93838 13.1766 5.76393C14.2834 6.87261 14.9051 8.37506 14.9054 9.94161C14.9056 11.5082 14.2844 13.0108 13.178 14.1199H13.1766ZM9.03312 9.34494C9.11178 9.42333 9.17419 9.51648 9.21678 9.61904C9.25936 9.72159 9.28128 9.83155 9.28128 9.9426C9.28128 10.0536 9.25936 10.1636 9.21678 10.2662C9.17419 10.3687 9.11178 10.4619 9.03312 10.5403L6.78312 12.7903C6.62461 12.9488 6.40963 13.0378 6.18546 13.0378C5.9613 13.0378 5.74631 12.9488 5.58781 12.7903C5.4293 12.6317 5.34025 12.4168 5.34025 12.1926C5.34025 11.9684 5.4293 11.7535 5.58781 11.5949L7.24226 9.9419L5.58921 8.28744C5.4307 8.12894 5.34166 7.91395 5.34166 7.68979C5.34166 7.57879 5.36352 7.46889 5.40599 7.36634C5.44847 7.26379 5.51073 7.17062 5.58921 7.09213C5.6677 7.01365 5.76087 6.95139 5.86342 6.90891C5.96597 6.86644 6.07587 6.84458 6.18687 6.84458C6.41103 6.84458 6.62602 6.93362 6.78452 7.09213L9.03312 9.34494ZM12.9706 10.5403L10.7206 12.7903C10.5621 12.9488 10.3471 13.0378 10.123 13.0378C9.8988 13.0378 9.68381 12.9488 9.52531 12.7903C9.3668 12.6317 9.27775 12.4168 9.27775 12.1926C9.27775 11.9684 9.3668 11.7535 9.52531 11.5949L11.1798 9.9419L9.52601 8.28744C9.3675 8.12894 9.27845 7.91395 9.27845 7.68979C9.27845 7.57879 9.30031 7.46889 9.34279 7.36634C9.38527 7.26379 9.44752 7.17062 9.52601 7.09213C9.60449 7.01365 9.69767 6.95139 9.80022 6.90891C9.90276 6.86644 10.0127 6.84458 10.1237 6.84458C10.3478 6.84458 10.5628 6.93362 10.7213 7.09213L12.9713 9.34213C13.0503 9.42041 13.1131 9.51353 13.156 9.61614C13.1989 9.71875 13.2211 9.82884 13.2212 9.94005C13.2214 10.0513 13.1997 10.1614 13.1571 10.2642C13.1146 10.367 13.0522 10.4603 12.9734 10.5389L12.9706 10.5403Z" fill="#19C5C7"/>
</svg>
