<svg width="360" height="33" viewBox="0 0 360 33" fill="none" xmlns="http://www.w3.org/2000/svg">
<rect width="360" height="33" fill="#312442"/>
<g clip-path="url(#clip0_102_14358)">
<path fill-rule="evenodd" clip-rule="evenodd" d="M-140 0L-78.6667 17.3333C-78.6667 17.3333 -67.337 11.3143 -66.3333 11.3333C-65.3297 11.3523 -19 21.3333 -19 21.3333L-8.33333 15L52 27L55 25.3333L71 14.6667L104 19.6667L127.333 26L136.333 19.6667L143.333 24L178.333 32.6667L241.667 17L250.333 21.3333L272.333 18.3333L303 10L318.667 13L349.333 10.3333L377 6L383.333 11.6667L395 16.6667L413 12.3333L428.333 5.33333L464.667 8.66666L485.667 7.33333L500 3.66666V33H-140V0Z" fill="white"/>
<path d="M485.667 17.2857L500 17V3.33333L485.667 7L464.667 8.33333L428.333 5L413 12L395 16.3333L383.333 11.3333L377 5.66667L349.333 10L318.667 12.6667L303 9.66667L272.333 18L250.333 21L241.667 16.6667L178.333 32.6667L241.667 23.0277L250.333 25.6017L272.333 23.8197L303 18.8697L318.667 20.6517L349.333 19.0677L368.667 16.001L383 22.8607L395 20L421.333 15.3333L435.667 19.3333H466.667L485.667 17.2857Z" fill="url(#paint0_linear_102_14358)"/>
<path d="M-140 13.6667L-78.6667 23.559C-78.6667 23.559 -67.337 19.984 -66.3333 19.995C-65.3297 20.006 -19 25.9333 -19 25.9333L-2.66666 22.3333L39 29L53 30.6667L71 21.975L104 24.945L127.333 28.7067L136.333 24.9447L143.333 27.5187L178.333 32.6667L143.333 24L136.333 19.6667L127.333 26L104 19.6667L71 14.6667L55 25.3333L52 27L-8.33333 15L-19 21.3333C-19 21.3333 -65.3297 11.3523 -66.3333 11.3333C-67.337 11.3143 -78.6667 17.3333 -78.6667 17.3333L-140 0V13.6667Z" fill="url(#paint1_linear_102_14358)"/>
</g>
<defs>
<linearGradient id="paint0_linear_102_14358" x1="373.015" y1="-0.680556" x2="373.015" y2="36.75" gradientUnits="userSpaceOnUse">
<stop stop-color="#E84A11"/>
<stop offset="1" stop-color="#F4E02B"/>
</linearGradient>
<linearGradient id="paint1_linear_102_14358" x1="373.015" y1="-0.680556" x2="373.015" y2="36.75" gradientUnits="userSpaceOnUse">
<stop stop-color="#E84A11"/>
<stop offset="1" stop-color="#F4E02B"/>
</linearGradient>
<clipPath id="clip0_102_14358">
<rect width="360" height="33" fill="white"/>
</clipPath>
</defs>
</svg>
