<svg width="1920" height="100" viewBox="0 0 1920 100" fill="none" xmlns="http://www.w3.org/2000/svg">
<rect width="1920" height="100" fill="#312442"/>
<path fill-rule="evenodd" clip-rule="evenodd" d="M0 1L184 53C184 53 217.989 34.943 221 35C224.011 35.057 363 65 363 65L395 46L576 82L585 77L633 45L732 60L802 79L829 60L850 73L955 99L1145 52L1171 65L1237 56L1329 31L1376 40L1468 32L1551 19L1570 36L1605 51L1659 38L1705 17L1814 27L1877 23L1920 12V100H0V1Z" fill="white"/>
<path d="M1877 52.857L1920 52V11L1877 22L1814 26L1705 16L1659 37L1605 50L1570 35L1551 18L1468 31L1376 39L1329 30L1237 55L1171 64L1145 51L955 99L1145 70.083L1171 77.805L1237 72.459L1329 57.609L1376 62.955L1468 58.203L1526 49.003L1569 69.582L1605 61L1684 47L1727 59H1820L1877 52.857Z" fill="url(#paint0_linear_102_13637)"/>
<path d="M0 42L184 71.677C184 71.677 217.989 60.952 221 60.985C224.011 61.018 363 78.8 363 78.8L412 68L537 88L579 93L633 66.925L732 75.835L802 87.12L829 75.834L850 83.556L955 99L850 73L829 60L802 79L732 60L633 45L585 77L576 82L395 46L363 65C363 65 224.011 35.057 221 35C217.989 34.943 184 53 184 53L0 1V42Z" fill="url(#paint1_linear_102_13637)"/>
<defs>
<linearGradient id="paint0_linear_102_13637" x1="1539.05" y1="-1.04167" x2="1539.05" y2="111.25" gradientUnits="userSpaceOnUse">
<stop stop-color="#E84A11"/>
<stop offset="1" stop-color="#F4E02B"/>
</linearGradient>
<linearGradient id="paint1_linear_102_13637" x1="1539.05" y1="-1.04167" x2="1539.05" y2="111.25" gradientUnits="userSpaceOnUse">
<stop stop-color="#E84A11"/>
<stop offset="1" stop-color="#F4E02B"/>
</linearGradient>
</defs>
</svg>
