<svg width="360" height="40" viewBox="0 0 360 40" fill="none" xmlns="http://www.w3.org/2000/svg">
<g clip-path="url(#clip0_102_34653)">
<g clip-path="url(#clip1_102_34653)">
<path fill-rule="evenodd" clip-rule="evenodd" d="M500 18.442L453 9.95276L425.167 15.6078L410 9.95276L368.667 5.44197L338.667 15.6078H313.667L297 9.95276L268.5 18.442L247.667 12.0091L219.333 15.6078L191.333 10.1086L166.333 18.442L120.667 10.1086L111.333 15.7753L84 19.2065H69L53.3333 12.0091L20 4.10864L3.66666 12.5232L-9.33334 12.0091H-26.3334L-39 7.12523L-87.6667 1.44197L-102.667 12.0091L-124 7.89637L-140 18.6086V38.1086H500V18.442Z" fill="url(#paint0_linear_102_34653)"/>
<path fill-rule="evenodd" clip-rule="evenodd" d="M500 0.441895L445 17.7752C445 17.7752 433.67 11.7562 432.667 11.7752C431.663 11.7942 385.333 21.7752 385.333 21.7752L374.667 15.4419L314.333 27.4419L311.333 25.7752L295.333 15.1086L262.333 20.1086L239 26.4419L230.667 21.7752L212.333 28.4419L180 33.1086L124.667 17.4419L116 21.7752L94 18.7752L63.3333 10.4419L47.6667 13.4419L17 10.7752L-10.6667 6.44189L-17 12.1086L-28.6667 17.1086L-46.6667 12.7752L-62 5.77523L-98.3334 9.10856L-119.333 7.77523L-133.667 4.10856L-140 0.441895V39.2752H500V0.441895Z" fill="#312442"/>
</g>
</g>
<defs>
<linearGradient id="paint0_linear_102_34653" x1="-13.0154" y1="38.8725" x2="-13.0154" y2="-3.14136" gradientUnits="userSpaceOnUse">
<stop stop-color="#E84A11"/>
<stop offset="1" stop-color="#F4E02B"/>
</linearGradient>
<clipPath id="clip0_102_34653">
<rect width="360" height="39" fill="white" transform="translate(0 0.441895)"/>
</clipPath>
<clipPath id="clip1_102_34653">
<rect width="360" height="98" fill="white" transform="translate(0 0.441895)"/>
</clipPath>
</defs>
</svg>
