<svg width="1366" height="100" viewBox="0 0 1366 100" fill="none" xmlns="http://www.w3.org/2000/svg">
<rect width="1366" height="100" fill="#312442"/>
<path fill-rule="evenodd" clip-rule="evenodd" d="M-277 1L-93 53C-93 53 -59.011 34.943 -56 35C-52.989 35.057 86 65 86 65L118 46L299 82L308 77L356 45L455 60L525 79L552 60L573 73L678 99L868 52L894 65L960 56L1052 31L1099 40L1191 32L1274 19L1293 36L1328 51L1382 38L1428 17L1537 27L1600 23L1643 12V100H-277V1Z" fill="white"/>
<path d="M1600 52.857L1643 52V11L1600 22L1537 26L1428 16L1382 37L1328 50L1293 35L1274 18L1191 31L1099 39L1052 30L960 55L894 64L868 51L678 99L868 70.083L894 77.805L960 72.459L1052 57.609L1099 62.955L1191 58.203L1249 49.003L1292 69.582L1328 61L1407 47L1450 59H1543L1600 52.857Z" fill="url(#paint0_linear_102_13817)"/>
<path d="M-277 42L-93 71.677C-93 71.677 -59.011 60.952 -56 60.985C-52.989 61.018 86 78.8 86 78.8L135 68L260 88L302 93L356 66.925L455 75.835L525 87.12L552 75.834L573 83.556L678 99L573 73L552 60L525 79L455 60L356 45L308 77L299 82L118 46L86 65C86 65 -52.989 35.057 -56 35C-59.011 34.943 -93 53 -93 53L-277 1V42Z" fill="url(#paint1_linear_102_13817)"/>
<defs>
<linearGradient id="paint0_linear_102_13817" x1="1262.05" y1="-1.04167" x2="1262.05" y2="111.25" gradientUnits="userSpaceOnUse">
<stop stop-color="#E84A11"/>
<stop offset="1" stop-color="#F4E02B"/>
</linearGradient>
<linearGradient id="paint1_linear_102_13817" x1="1262.05" y1="-1.04167" x2="1262.05" y2="111.25" gradientUnits="userSpaceOnUse">
<stop stop-color="#E84A11"/>
<stop offset="1" stop-color="#F4E02B"/>
</linearGradient>
</defs>
</svg>
