<svg width="768" height="100" viewBox="0 0 768 100" fill="none" xmlns="http://www.w3.org/2000/svg">
<rect width="768" height="100" fill="#312442"/>
<path fill-rule="evenodd" clip-rule="evenodd" d="M-576 1L-392 53C-392 53 -358.011 34.943 -355 35C-351.989 35.057 -213 65 -213 65L-181 46L0 82L9 77L57 45L156 60L226 79L253 60L274 73L379 99L569 52L595 65L661 56L753 31L800 40L892 32L975 19L994 36L1029 51L1083 38L1129 17L1238 27L1301 23L1344 12V100H-576V1Z" fill="white"/>
<path d="M1301 52.857L1344 52V11L1301 22L1238 26L1129 16L1083 37L1029 50L994 35L975 18L892 31L800 39L753 30L661 55L595 64L569 51L379 99L569 70.083L595 77.805L661 72.459L753 57.609L800 62.955L892 58.203L950 49.003L993 69.582L1029 61L1108 47L1151 59H1244L1301 52.857Z" fill="url(#paint0_linear_102_14177)"/>
<path d="M-576 42L-392 71.677C-392 71.677 -358.011 60.952 -355 60.985C-351.989 61.018 -213 78.8 -213 78.8L-164 68L-39 88L3 93L57 66.925L156 75.835L226 87.12L253 75.834L274 83.556L379 99L274 73L253 60L226 79L156 60L57 45L9 77L0 82L-181 46L-213 65C-213 65 -351.989 35.057 -355 35C-358.011 34.943 -392 53 -392 53L-576 1V42Z" fill="url(#paint1_linear_102_14177)"/>
<defs>
<linearGradient id="paint0_linear_102_14177" x1="963.046" y1="-1.04167" x2="963.046" y2="111.25" gradientUnits="userSpaceOnUse">
<stop stop-color="#E84A11"/>
<stop offset="1" stop-color="#F4E02B"/>
</linearGradient>
<linearGradient id="paint1_linear_102_14177" x1="963.046" y1="-1.04167" x2="963.046" y2="111.25" gradientUnits="userSpaceOnUse">
<stop stop-color="#E84A11"/>
<stop offset="1" stop-color="#F4E02B"/>
</linearGradient>
</defs>
</svg>
