<svg width="1024" height="100" viewBox="0 0 1024 100" fill="none" xmlns="http://www.w3.org/2000/svg">
<rect width="1024" height="100" fill="#312442"/>
<path fill-rule="evenodd" clip-rule="evenodd" d="M-448 1L-264 53C-264 53 -230.011 34.943 -227 35C-223.989 35.057 -85 65 -85 65L-53 46L128 82L137 77L185 45L284 60L354 79L381 60L402 73L507 99L697 52L723 65L789 56L881 31L928 40L1020 32L1103 19L1122 36L1157 51L1211 38L1257 17L1366 27L1429 23L1472 12V100H-448V1Z" fill="white"/>
<path d="M1429 52.857L1472 52V11L1429 22L1366 26L1257 16L1211 37L1157 50L1122 35L1103 18L1020 31L928 39L881 30L789 55L723 64L697 51L507 99L697 70.083L723 77.805L789 72.459L881 57.609L928 62.955L1020 58.203L1078 49.003L1121 69.582L1157 61L1236 47L1279 59H1372L1429 52.857Z" fill="url(#paint0_linear_102_13997)"/>
<path d="M-448 42L-264 71.677C-264 71.677 -230.011 60.952 -227 60.985C-223.989 61.018 -85 78.8 -85 78.8L-36 68L89 88L131 93L185 66.925L284 75.835L354 87.12L381 75.834L402 83.556L507 99L402 73L381 60L354 79L284 60L185 45L137 77L128 82L-53 46L-85 65C-85 65 -223.989 35.057 -227 35C-230.011 34.943 -264 53 -264 53L-448 1V42Z" fill="url(#paint1_linear_102_13997)"/>
<defs>
<linearGradient id="paint0_linear_102_13997" x1="1091.05" y1="-1.04167" x2="1091.05" y2="111.25" gradientUnits="userSpaceOnUse">
<stop stop-color="#E84A11"/>
<stop offset="1" stop-color="#F4E02B"/>
</linearGradient>
<linearGradient id="paint1_linear_102_13997" x1="1091.05" y1="-1.04167" x2="1091.05" y2="111.25" gradientUnits="userSpaceOnUse">
<stop stop-color="#E84A11"/>
<stop offset="1" stop-color="#F4E02B"/>
</linearGradient>
</defs>
</svg>
