<svg width="18" height="18" viewBox="0 0 18 18" fill="none" xmlns="http://www.w3.org/2000/svg">
<g clip-path="url(#clip0_2431_471)">
<path d="M15.7009 11.9243C15.6587 11.8279 15.5905 11.7451 15.504 11.6852C14.3108 10.8654 14.0626 9.46688 14.0626 8.4375C14.0626 7.19508 15.0097 6.11297 15.5743 5.57789C15.6298 5.52533 15.6741 5.46199 15.7043 5.39175C15.7345 5.32151 15.7501 5.24584 15.7501 5.16938C15.7501 5.09291 15.7345 5.01724 15.7043 4.947C15.6741 4.87677 15.6298 4.81343 15.5743 4.76086C14.6828 3.91922 13.2062 3.375 11.8126 3.375C10.8115 3.37577 9.833 3.6725 9.0001 4.22789C8.02846 3.57635 6.86016 3.28374 5.69612 3.40038C4.53209 3.51703 3.44508 4.03565 2.62205 4.86703C2.13003 5.36934 1.74398 5.9654 1.48682 6.61982C1.22967 7.27425 1.10666 7.97367 1.1251 8.67656C1.15293 9.86294 1.41685 11.0319 1.90143 12.1151C2.38601 13.1984 3.08155 14.1742 3.94744 14.9857C4.46902 15.4785 5.15996 15.7521 5.87752 15.75H12.0425C12.4261 15.7507 12.8058 15.6727 13.158 15.5206C13.5102 15.3686 13.8274 15.1458 14.09 14.8662C14.5764 14.3427 14.9972 13.7618 15.343 13.1365C15.8366 12.2344 15.7733 12.0938 15.7009 11.9243ZM13.266 14.0998C13.1089 14.2665 12.9193 14.3992 12.7088 14.4895C12.4984 14.5799 12.2716 14.626 12.0425 14.625H5.87752C5.44775 14.6264 5.03389 14.4625 4.72158 14.1673C3.96366 13.4577 3.35474 12.6042 2.93039 11.6566C2.50605 10.709 2.27478 9.68639 2.2501 8.64844C2.23471 8.09695 2.33043 7.54801 2.53155 7.03427C2.73268 6.52054 3.03509 6.05251 3.4208 5.65805C3.78116 5.28989 4.21169 4.99772 4.68691 4.79881C5.16214 4.59991 5.67242 4.4983 6.1876 4.5H6.24244C7.11872 4.50923 7.96633 4.8134 8.64853 5.36344C8.7483 5.44332 8.87229 5.48684 9.0001 5.48684C9.1279 5.48684 9.25189 5.44332 9.35166 5.36344C10.0485 4.80161 10.9175 4.49673 11.8126 4.5C12.7065 4.51038 13.581 4.76179 14.3438 5.22774C13.4298 6.24867 12.9376 7.37016 12.9376 8.4375C12.9376 10.1088 13.4748 11.442 14.4971 12.3258C14.1752 12.9738 13.7604 13.5715 13.266 14.0998ZM9.01627 2.10938C9.17227 1.50519 9.52477 0.970035 10.0183 0.58816C10.5118 0.206285 11.1183 -0.000625102 11.7423 1.41864e-06H11.8126C11.9618 1.41864e-06 12.1049 0.0592647 12.2103 0.164754C12.3158 0.270243 12.3751 0.413317 12.3751 0.562501C12.3751 0.711686 12.3158 0.85476 12.2103 0.960249C12.1049 1.06574 11.9618 1.125 11.8126 1.125H11.7423C11.3681 1.12497 11.0046 1.24927 10.7088 1.47837C10.413 1.70747 10.2018 2.02837 10.1082 2.39063C10.0709 2.53515 9.97775 2.65894 9.84918 2.73476C9.72062 2.81058 9.5672 2.83222 9.42267 2.79492C9.27815 2.75763 9.15436 2.66445 9.07854 2.53588C9.00272 2.40732 8.98108 2.2539 9.01838 2.10938H9.01627Z" fill="white"/>
</g>
<defs>
<clipPath id="clip0_2431_471">
<rect width="18" height="18" fill="white"/>
</clipPath>
</defs>
</svg>
