<svg width="18" height="18" viewBox="0 0 18 18" fill="none" xmlns="http://www.w3.org/2000/svg">
<path d="M15.1875 9.56245H9.5625C9.41332 9.56245 9.27024 9.62171 9.16475 9.7272C9.05926 9.83269 9 9.97577 9 10.125V14.1644C8.99985 14.2963 9.04603 14.424 9.13046 14.5252C9.2149 14.6265 9.33223 14.6949 9.46195 14.7185L15.087 15.7408C15.1201 15.747 15.1538 15.7501 15.1875 15.75C15.3367 15.75 15.4798 15.6907 15.5852 15.5852C15.6907 15.4797 15.75 15.3366 15.75 15.1875V10.125C15.75 9.97577 15.6907 9.83269 15.5852 9.7272C15.4798 9.62171 15.3367 9.56245 15.1875 9.56245ZM14.625 14.5132L10.125 13.6954V10.6875H14.625V14.5132ZM7.3125 9.56245H2.8125C2.66332 9.56245 2.52024 9.62171 2.41475 9.7272C2.30926 9.83269 2.25 9.97577 2.25 10.125V12.9375C2.25002 13.0692 2.29627 13.1967 2.38069 13.2979C2.46511 13.399 2.58234 13.4673 2.71195 13.4908L7.21195 14.3092C7.24515 14.3151 7.27879 14.3182 7.3125 14.3184C7.46168 14.3184 7.60476 14.2591 7.71025 14.1536C7.81574 14.0481 7.875 13.9051 7.875 13.7559V10.125C7.875 9.97577 7.81574 9.83269 7.71025 9.7272C7.60476 9.62171 7.46168 9.56245 7.3125 9.56245ZM6.75 13.0816L3.375 12.4678V10.6875H6.75V13.0816ZM15.5482 2.38073C15.4849 2.3279 15.4108 2.28962 15.3311 2.2686C15.2514 2.24758 15.1681 2.24433 15.087 2.25909L9.46195 3.28214C9.33234 3.30568 9.21511 3.37397 9.13069 3.4751C9.04627 3.57622 9.00002 3.70377 9 3.8355V7.87495C9 8.02413 9.05926 8.16721 9.16475 8.2727C9.27024 8.37819 9.41332 8.43745 9.5625 8.43745H15.1875C15.3367 8.43745 15.4798 8.37819 15.5852 8.2727C15.6907 8.16721 15.75 8.02413 15.75 7.87495V2.81245C15.75 2.73011 15.7319 2.64876 15.6971 2.57416C15.6622 2.49957 15.6114 2.43353 15.5482 2.38073ZM14.625 7.31245H10.125V4.30448L14.625 3.48675V7.31245ZM7.6732 3.81229C7.60993 3.75946 7.53582 3.72118 7.45611 3.70016C7.3764 3.67914 7.29305 3.67589 7.21195 3.69065L2.71195 4.50909C2.58234 4.53264 2.46511 4.60093 2.38069 4.70205C2.29627 4.80317 2.25002 4.93072 2.25 5.06245V7.87495C2.25 8.02413 2.30926 8.16721 2.41475 8.2727C2.52024 8.37819 2.66332 8.43745 2.8125 8.43745H7.3125C7.46168 8.43745 7.60476 8.37819 7.71025 8.2727C7.81574 8.16721 7.875 8.02413 7.875 7.87495V4.24401C7.87501 4.16167 7.85695 4.08032 7.82208 4.00573C7.78721 3.93113 7.73639 3.8651 7.6732 3.81229ZM6.75 7.31245H3.375V5.53214L6.75 4.92183V7.31245Z" fill="white"/>
</svg>
